:SAMPLES-PER-SECOND 30
:FULLY-SPECIFIED
:DEGREES
35
root  5.156 38.0905 10.2121 -177.553 17.109 177.31
RightUpLeg  -18.4122 -6.52463 -15.3894
RightLeg  22.2709 -10.3135 -4.8221
RightFoot  -2.02064 -1.59775 19.2627
RightToes  -1.74624e-010 0 -3.6325e-017
Spine  13.917 0.615794 -1.87826
Spine1  22.0199 -0.87388 3.26053
HEad  -21.3847 21.7872 -15.5969
LeftShoulder1  1.32294 -3.61059 -11.4249
LeftArm  11.3915 5.17946 -59.6964
LeftForeArm  99.7867 -78.2236 -114.381
LeftHand  -2.0941 -2.65623 29.8562
RightShoulder  0.738152 0.689786 10.3975
RightArm  1.13309 -8.9601 60.5669
RightForeArm  152.763 63.0378 158.883
RightHand  -1.24429 5.0633 -14.0466
LeftUpLeg  -17.5461 -1.2317 3.44346
LeftLeg  29.8987 0.23094 0.495262
LeftFoot  -15.2974 -0.168305 -7.51106
LeftToes  3.7286e-011 -1.5702e-010 -9.70233e-012
36
root  4.93826 38.1216 10.2156 -178.067 17.5787 176.78
RightUpLeg  -18.2027 -5.99942 -16.2397
RightLeg  22.0807 -10.7127 -4.95084
RightFoot  -1.53104 -1.61535 18.552
RightToes  -1.74624e-010 0 -3.6325e-017
Spine  13.5045 0.735789 -2.93352
Spine1  22.8664 -0.946578 3.33824
HEad  -21.5015 21.8676 -15.7271
LeftShoulder1  1.34002 -3.8338 -11.0548
LeftArm  10.6095 3.71278 -58.2956
LeftForeArm  95.9908 -78.49 -110.962
LeftHand  -2.21001 -2.59528 31.6535
RightShoulder  0.731267 0.66165 10.3456
RightArm  0.775557 -8.53073 60.5474
RightForeArm  152.8 63.1882 158.758
RightHand  -1.26705 5.08114 -14.2724
LeftUpLeg  -16.9514 -0.368483 2.53254
LeftLeg  29.3758 -0.0101827 0.346325
LeftFoot  -14.9823 -0.137095 -7.1233
LeftToes  3.7286e-011 -1.5702e-010 -9.70233e-012
37
root  4.77386 38.2227 10.1869 -178.087 17.5562 176.429
RightUpLeg  -17.7675 -5.48567 -16.849
RightLeg  20.8671 -11.1786 -4.88101
RightFoot  -1.30899 -1.58924 17.8607
RightToes  -1.74624e-010 0 -3.6325e-017
Spine  12.7239 0.591002 -3.42244
Spine1  23.4965 -1.13834 3.25063
HEad  -21.2062 21.8406 -15.7145
LeftShoulder1  1.32161 -3.79445 -10.8849
LeftArm  10.39 3.07095 -57.141
LeftForeArm  94.3751 -78.5387 -109.921
LeftHand  -2.27901 -2.5048 32.9385
RightShoulder  0.726187 0.674216 10.1498
RightArm  0.563695 -9.26638 60.8859
RightForeArm  152.908 63.2627 158.704
RightHand  -1.25102 5.02427 -14.1703
LeftUpLeg  -16.5913 0.130462 1.86385
LeftLeg  28.3082 -0.361908 0.138034
LeftFoot  -14.4241 -0.0980828 -6.85154
LeftToes  3.7286e-011 -1.5702e-010 -9.70233e-012
38
root  4.6861 38.3604 10.1492 -177.746 17.5438 176.497
RightUpLeg  -17.4544 -4.6471 -16.7315
RightLeg  19.6238 -9.54803 -3.96585
RightFoot  -2.14813 -1.49562 18.2979
RightToes  -1.74624e-010 0 -3.6325e-017
Spine  12.2355 0.45155 -3.41745
Spine1  23.2759 -1.19424 3.05816
HEad  -20.683 21.935 -15.6081
LeftShoulder1  1.27252 -3.49506 -10.9659
LeftArm  10.7835 3.5289 -56.3495
LeftForeArm  96.7159 -78.3036 -112.697
LeftHand  -2.30065 -2.49877 33.255
RightShoulder  0.725932 0.694395 10.0489
RightArm  0.859161 -10.894 60.9812
RightForeArm  153.165 62.9934 158.961
RightHand  -1.21601 4.96672 -13.859
LeftUpLeg  -16.226 -0.186861 1.74859
LeftLeg  26.9026 -0.112095 0.282151
LeftFoot  -13.8399 -0.0690582 -6.96589
LeftToes  3.7286e-011 -1.5702e-010 -9.70233e-012
39
root  4.68997 38.4719 10.1368 -177.388 17.8459 176.78
RightUpLeg  -17.719 -3.85785 -15.8761
RightLeg  20.3873 -5.4519 -2.42802
RightFoot  -3.89061 -1.32942 19.835
RightToes  -1.74624e-010 0 -3.6325e-017
Spine  12.2992 0.480398 -3.4603
Spine1  22.4181 -1.05913 2.829
HEad  -20.4515 22.2333 -15.5368
LeftShoulder1  1.22873 -3.19766 -11.1339
LeftArm  11.4214 5.01166 -55.9174
LeftForeArm  101.813 -77.8512 -117.575
LeftHand  -2.3227 -2.62664 33.0511
RightShoulder  0.753326 0.78787 10.3393
RightArm  1.65116 -12.3836 60.4747
RightForeArm  153.502 62.5863 159.337
RightHand  -1.17611 4.93096 -13.4622
LeftUpLeg  -15.9135 -1.34302 2.02236
LeftLeg  25.8278 1.09442 0.923375
LeftFoot  -13.4348 -0.0515961 -7.21249
LeftToes  3.7286e-011 -1.5702e-010 -9.70233e-012
40
root  4.76627 38.5012 10.1514 -177.094 18.0444 177.043
RightUpLeg  -18.171 -3.85082 -14.7109
RightLeg  22.9212 -1.71134 -1.01636
RightFoot  -5.59971 -1.09825 20.8912
RightToes  -1.74624e-010 0 -3.6325e-017
Spine  12.5658 0.457576 -3.63444
Spine1  21.526 -1.02614 2.64618
HEad  -20.4507 22.6607 -15.4487
LeftShoulder1  1.21757 -3.07764 -11.3161
LeftArm  12.021 7.03093 -55.704
LeftForeArm  106.926 -77.3197 -122.194
LeftHand  -2.34876 -2.77551 32.8264
RightShoulder  0.792977 0.922105 10.7473
RightArm  2.54752 -13.1007 60.0786
RightForeArm  153.808 62.482 159.453
RightHand  -1.12548 4.87704 -12.9641
LeftUpLeg  -16.0701 -2.66458 2.39342
LeftLeg  25.7772 2.60209 1.71999
LeftFoot  -13.4599 -0.052249 -7.18697
LeftToes  3.7286e-011 -1.5702e-010 -9.70233e-012
41
root  4.85946 38.4053 10.1697 -176.748 17.6839 177.402
RightUpLeg  -18.2835 -4.62304 -13.6287
RightLeg  25.1302 -0.780195 -0.628164
RightFoot  -6.96699 -0.84564 20.6573
RightToes  -1.74624e-010 0 -3.6325e-017
Spine  12.8193 0.195705 -3.24341
Spine1  20.6939 -1.20553 2.5326
HEad  -20.1403 22.9676 -15.1385
LeftShoulder1  1.22032 -3.01515 -11.56
LeftArm  12.8039 8.84659 -55.82
LeftForeArm  109.177 -77.0075 -124.416
LeftHand  -2.33508 -2.81588 32.4938
RightShoulder  0.795854 0.914482 10.8534
RightArm  3.11405 -13.4227 60.406
RightForeArm  154.079 62.558 159.417
RightHand  -1.07023 4.8032 -12.4325
LeftUpLeg  -17.0046 -3.47146 2.93178
LeftLeg  27.1127 3.06406 2.05144
LeftFoot  -14.1436 -0.094851 -7.30823
LeftToes  3.7286e-011 -1.5702e-010 -9.70233e-012
42
root  4.91617 38.1372 10.1783 -176.538 17.1442 178.019
RightUpLeg  -18.4877 -5.33095 -12.7337
RightLeg  26.8248 -1.75519 -1.19576
RightFoot  -8.58346 -0.538933 19.7283
RightToes  -1.74624e-010 0 -3.6325e-017
Spine  13.176 -0.0808891 -1.91086
Spine1  20.0062 -1.28084 2.4619
HEad  -19.6181 22.9687 -14.8204
LeftShoulder1  1.22214 -2.91765 -11.9064
LeftArm  13.728 9.97029 -56.7451
LeftForeArm  106.326 -77.362 -121.782
LeftHand  -2.29894 -2.80605 32.0587
RightShoulder  0.760768 0.736495 10.7772
RightArm  3.14369 -13.4849 60.7779
RightForeArm  154.111 62.3592 159.583
RightHand  -1.03822 4.75954 -12.1215
LeftUpLeg  -18.552 -3.52636 3.77532
LeftLeg  30.117 2.06724 1.64277
LeftFoot  -15.7077 -0.209333 -7.93097
LeftToes  3.7286e-011 -1.5702e-010 -9.70233e-012
43
root  4.9263 37.6673 10.1913 -177.017 16.9887 178.635
RightUpLeg  -19.2956 -5.24009 -12.1826
RightLeg  29.8827 -2.50654 -1.79126
RightFoot  -10.7997 -0.163891 18.9523
RightToes  -1.74624e-010 0 -3.6325e-017
Spine  13.5652 -0.156609 -0.542335
Spine1  20.2482 -1.15548 2.42454
HEad  -19.643 22.8971 -15.1653
LeftShoulder1  1.27261 -3.00154 -12.4895
LeftArm  13.7772 10.4133 -58.8046
LeftForeArm  96.7039 -78.4015 -111.827
LeftHand  -2.34659 -2.90282 32.3196
RightShoulder  0.743417 0.60556 10.9458
RightArm  2.66024 -12.2359 60.2035
RightForeArm  153.35 62.1596 159.672
RightHand  -1.04388 4.74998 -12.1962
LeftUpLeg  -20.3257 -2.47516 4.6341
LeftLeg  35.0889 0.376789 0.650146
LeftFoot  -17.794 -0.358915 -8.26232
LeftToes  3.7286e-011 -1.5702e-010 -9.70233e-012
44
root  4.8872 37.1088 10.2109 -178.355 16.8339 179.003
RightUpLeg  -20.0217 -4.71766 -12.0856
RightLeg  34.3595 -2.40278 -2.01716
RightFoot  -13.0173 0.187358 18.6975
RightToes  -1.74624e-010 0 -3.6325e-017
Spine  13.7112 -0.314789 0.0474009
Spine1  21.9974 -1.30504 2.49161
HEad  -20.27 23.1626 -16.2238
LeftShoulder1  1.4242 -3.44379 -13.5183
LeftArm  12.1522 10.3578 -61.5937
LeftForeArm  81.0117 -79.1905 -95.6602
LeftHand  -2.51582 -3.0259 34.027
RightShoulder  0.768755 0.652946 11.395
RightArm  1.78024 -9.15179 59.0059
RightForeArm  151.681 62.826 158.949
RightHand  -1.08108 4.74825 -12.6192
LeftUpLeg  -21.9684 -0.371684 5.33843
LeftLeg  41.212 -1.79117 -1.31135
LeftFoot  -18.8504 -0.446198 -8.4778
LeftToes  3.7286e-011 -1.5702e-010 -9.70233e-012
45
root  4.76553 36.6625 10.1874 -179.987 15.9491 179.223
RightUpLeg  -19.6965 -4.56038 -12.3651
RightLeg  38.0088 -2.3026 -2.20695
RightFoot  -14.4732 0.422228 18.89
RightToes  -1.74624e-010 0 -3.6325e-017
Spine  13.4923 -0.867512 0.264672
Spine1  24.4326 -1.96201 2.57165
HEad  -20.4394 23.6862 -16.8593
LeftShoulder1  1.62763 -3.99199 -14.863
LeftArm  9.907 10.0167 -64.1883
LeftForeArm  67.451 -79.141 -82.6676
LeftHand  -2.69077 -2.97718 36.4459
RightShoulder  0.800239 0.743828 11.7811
RightArm  0.67372 -6.21859 58.3738
RightForeArm  149.953 64.3124 157.446
RightHand  -1.15705 4.81374 -13.3935
LeftUpLeg  -23.3663 1.53723 6.15298
LeftLeg  46.9423 -5.2101 -5.55716
LeftFoot  -17.7444 -0.501222 -11.0051
LeftToes  3.7286e-011 -1.5702e-010 -9.70233e-012
46
root  4.50882 36.5081 10.0457 178.841 14.7279 179.335
RightUpLeg  -18.2683 -4.60374 -12.983
RightLeg  38.7786 -2.95264 -2.81529
RightFoot  -14.7544 0.484685 19.4892
RightToes  -1.74624e-010 0 -3.6325e-017
Spine  12.9228 -1.49338 0.735374
Spine1  26.1781 -2.526 2.47017
HEad  -19.2984 23.9825 -16.0301
LeftShoulder1  1.74185 -4.17226 -15.9384
LeftArm  9.13391 9.89842 -65.8369
LeftForeArm  64.72 -79.0422 -80.8115
LeftHand  -2.74515 -2.89078 37.4861
RightShoulder  0.802622 0.706265 12.0321
RightArm  -0.454466 -6.26528 58.5412
RightForeArm  149.019 65.2889 156.395
RightHand  -1.27634 5.00952 -14.466
LeftUpLeg  -24.2552 2.13369 7.0616
LeftLeg  50.7502 -9.19217 -11.3731
LeftFoot  -15.434 -0.493731 -16.352
LeftToes  3.7286e-011 -1.5702e-010 -9.70233e-012
47
root  4.09319 36.76 9.77189 178.414 14.4193 178.918
RightUpLeg  -16.3245 -3.86276 -14.1443
RightLeg  36.1417 -4.24622 -3.58449
RightFoot  -13.3042 0.25934 20.318
RightToes  -1.74624e-010 0 -3.6325e-017
Spine  12.0637 -1.59221 0.959406
Spine1  26.7025 -2.37426 2.1008
HEad  -17.2648 23.9358 -14.3572
LeftShoulder1  1.67276 -3.77215 -16.2529
LeftArm  10.5009 10.5126 -66.3088
LeftForeArm  74.4938 -79.2313 -89.2626
LeftHand  -2.66205 -3.04167 35.812
RightShoulder  0.78251 0.525216 12.4365
RightArm  -1.22143 -9.60618 58.6652
RightForeArm  148.805 64.7956 156.854
RightHand  -1.38226 5.22171 -15.3347
LeftUpLeg  -24.0189 1.66124 7.51819
LeftLeg  50.9302 -10.996 -13.7219
LeftFoot  -13.8738 -0.365876 -20.0355
LeftToes  3.7286e-011 -1.5702e-010 -9.70233e-012
48
root  3.52082 37.3951 9.43633 178.61 15.5309 177.807
RightUpLeg  -14.4578 -2.09004 -15.9269
RightLeg  30.7925 -5.57579 -3.82438
RightFoot  -9.42817 -0.419381 20.9825
RightToes  -1.74624e-010 0 -3.6325e-017
Spine  11.0939 -1.15104 0.192341
Spine1  26.2645 -1.7622 1.63318
HEad  -15.4149 24.1153 -13.5203
LeftShoulder1  1.47927 -3.01502 -15.9238
LeftArm  12.7055 11.8188 -65.7328
LeftForeArm  92.4243 -79.1474 -103.066
LeftHand  -2.5396 -3.51099 32.587
RightShoulder  0.743233 0.227047 12.9986
RightArm  -1.00423 -13.9323 58.169
RightForeArm  148.737 63.3756 158.182
RightHand  -1.38509 5.25514 -15.3155
LeftUpLeg  -22.414 0.564613 7.40248
LeftLeg  46.6425 -8.33093 -9.0592
LeftFoot  -12.4768 -0.119857 -17.7979
LeftToes  3.7286e-011 -1.5702e-010 -9.70233e-012
